<mxfile host="app.diagrams.net" modified="2023-03-08T10:09:40.865Z" agent="5.0 (X11; Ubuntu)" etag="qWyp6_8m7XOwg5Unjqv3" version="21.0.2" type="github">
  <diagram name="Strona-1" id="gdz6SAXD7fXK3dvD2qbr">
    <mxGraphModel dx="1360" dy="795" grid="1" gridSize="10" guides="1" tooltips="1" connect="1" arrows="1" fold="1" page="1" pageScale="1" pageWidth="827" pageHeight="1169" math="0" shadow="0">
      <root>
        <mxCell id="0" />
        <mxCell id="1" parent="0" />
        <mxCell id="_mxtI2NqDRiSmFP-XB4B-3" style="edgeStyle=orthogonalEdgeStyle;rounded=0;orthogonalLoop=1;jettySize=auto;html=1;" edge="1" parent="1" source="_mxtI2NqDRiSmFP-XB4B-1" target="_mxtI2NqDRiSmFP-XB4B-2">
          <mxGeometry relative="1" as="geometry" />
        </mxCell>
        <mxCell id="_mxtI2NqDRiSmFP-XB4B-1" value="start" style="ellipse;whiteSpace=wrap;html=1;" vertex="1" parent="1">
          <mxGeometry x="240" y="120" width="120" height="80" as="geometry" />
        </mxCell>
        <mxCell id="_mxtI2NqDRiSmFP-XB4B-5" style="edgeStyle=orthogonalEdgeStyle;rounded=0;orthogonalLoop=1;jettySize=auto;html=1;entryX=0.5;entryY=0;entryDx=0;entryDy=0;" edge="1" parent="1" source="_mxtI2NqDRiSmFP-XB4B-2" target="_mxtI2NqDRiSmFP-XB4B-4">
          <mxGeometry relative="1" as="geometry" />
        </mxCell>
        <mxCell id="_mxtI2NqDRiSmFP-XB4B-2" value="&lt;div&gt;Podaj&lt;/div&gt;&lt;div&gt;a =&amp;nbsp; 2023&lt;/div&gt;&lt;div&gt;b = 2007&lt;br&gt;&lt;/div&gt;" style="rounded=0;whiteSpace=wrap;html=1;" vertex="1" parent="1">
          <mxGeometry x="240" y="280" width="120" height="60" as="geometry" />
        </mxCell>
        <mxCell id="_mxtI2NqDRiSmFP-XB4B-6" style="edgeStyle=orthogonalEdgeStyle;rounded=0;orthogonalLoop=1;jettySize=auto;html=1;" edge="1" parent="1" source="_mxtI2NqDRiSmFP-XB4B-4" target="_mxtI2NqDRiSmFP-XB4B-7">
          <mxGeometry relative="1" as="geometry">
            <mxPoint x="470" y="460" as="targetPoint" />
          </mxGeometry>
        </mxCell>
        <mxCell id="_mxtI2NqDRiSmFP-XB4B-9" style="edgeStyle=orthogonalEdgeStyle;rounded=0;orthogonalLoop=1;jettySize=auto;html=1;entryX=1;entryY=0.5;entryDx=0;entryDy=0;" edge="1" parent="1" source="_mxtI2NqDRiSmFP-XB4B-4" target="_mxtI2NqDRiSmFP-XB4B-8">
          <mxGeometry relative="1" as="geometry" />
        </mxCell>
        <mxCell id="_mxtI2NqDRiSmFP-XB4B-4" value="a-b&amp;lt;18" style="rhombus;whiteSpace=wrap;html=1;" vertex="1" parent="1">
          <mxGeometry x="260" y="420" width="80" height="80" as="geometry" />
        </mxCell>
        <mxCell id="_mxtI2NqDRiSmFP-XB4B-13" style="edgeStyle=orthogonalEdgeStyle;rounded=0;orthogonalLoop=1;jettySize=auto;html=1;exitX=0;exitY=1;exitDx=0;exitDy=0;entryX=0.5;entryY=0;entryDx=0;entryDy=0;" edge="1" parent="1" source="_mxtI2NqDRiSmFP-XB4B-7" target="_mxtI2NqDRiSmFP-XB4B-10">
          <mxGeometry relative="1" as="geometry" />
        </mxCell>
        <mxCell id="_mxtI2NqDRiSmFP-XB4B-7" value="&lt;div&gt;wyświetl&lt;/div&gt;&lt;div&gt;&quot;jest pełnoletni&quot;&lt;br&gt;&lt;/div&gt;" style="rounded=0;whiteSpace=wrap;html=1;" vertex="1" parent="1">
          <mxGeometry x="400" y="430" width="120" height="60" as="geometry" />
        </mxCell>
        <mxCell id="_mxtI2NqDRiSmFP-XB4B-12" style="edgeStyle=orthogonalEdgeStyle;rounded=0;orthogonalLoop=1;jettySize=auto;html=1;exitX=1;exitY=1;exitDx=0;exitDy=0;" edge="1" parent="1" source="_mxtI2NqDRiSmFP-XB4B-8" target="_mxtI2NqDRiSmFP-XB4B-10">
          <mxGeometry relative="1" as="geometry" />
        </mxCell>
        <mxCell id="_mxtI2NqDRiSmFP-XB4B-8" value="&lt;div&gt;wyświetl&lt;/div&gt;&lt;div&gt;&quot;nie pełnoletni&quot; &lt;br&gt;&lt;/div&gt;&lt;div&gt;&lt;br&gt;&lt;/div&gt;" style="rounded=0;whiteSpace=wrap;html=1;" vertex="1" parent="1">
          <mxGeometry x="50" y="430" width="120" height="60" as="geometry" />
        </mxCell>
        <mxCell id="_mxtI2NqDRiSmFP-XB4B-10" value="end" style="ellipse;whiteSpace=wrap;html=1;" vertex="1" parent="1">
          <mxGeometry x="240" y="610" width="120" height="80" as="geometry" />
        </mxCell>
        <mxCell id="_mxtI2NqDRiSmFP-XB4B-15" value="Tak" style="text;html=1;align=center;verticalAlign=middle;resizable=0;points=[];autosize=1;strokeColor=none;fillColor=none;" vertex="1" parent="1">
          <mxGeometry x="200" y="440" width="40" height="30" as="geometry" />
        </mxCell>
        <mxCell id="_mxtI2NqDRiSmFP-XB4B-16" value="&lt;div&gt;Nie&lt;/div&gt;&lt;div&gt;&lt;br&gt;&lt;/div&gt;" style="text;html=1;align=center;verticalAlign=middle;resizable=0;points=[];autosize=1;strokeColor=none;fillColor=none;" vertex="1" parent="1">
          <mxGeometry x="340" y="440" width="40" height="40" as="geometry" />
        </mxCell>
      </root>
    </mxGraphModel>
  </diagram>
</mxfile>
